<svg width="102" height="32" viewBox="0 0 102 32" fill="none" xmlns="http://www.w3.org/2000/svg">
<path d="M99.623 2.64617C99.7858 2.56474 99.908 2.48332 100.03 2.36118C100.112 2.23904 100.152 2.07619 100.152 1.87263C100.152 1.58764 100.071 1.34337 99.908 1.22123C99.7451 1.09909 99.4601 1.01767 99.0937 1.01767H98.2388V3.98968H98.7273V2.80902H99.1752L99.8673 3.98968H100.437L99.623 2.64617ZM99.0937 2.40189H98.7273V1.42479H99.0937C99.2973 1.42479 99.4601 1.46551 99.5416 1.54693C99.623 1.62836 99.7044 1.75049 99.7044 1.91334C99.7044 2.03548 99.6637 2.15762 99.5416 2.27976C99.3787 2.36118 99.2566 2.40189 99.0937 2.40189Z" fill="#4DCEFD"/>
<path d="M101.292 1.2619C101.089 0.854777 100.763 0.569789 100.356 0.366227C99.9488 0.162665 99.5417 0.0405273 99.0938 0.0405273C98.646 0.0405273 98.2389 0.162665 97.8317 0.366227C97.4246 0.569789 97.1396 0.895489 96.9361 1.30261C96.7325 1.70974 96.6104 2.11686 96.6104 2.5647C96.6104 3.01254 96.7325 3.41966 96.9361 3.78607C97.1396 4.15249 97.4653 4.47819 97.8317 4.72246C98.2389 4.96674 98.646 5.04816 99.0938 5.04816C99.5417 5.04816 99.9895 4.92602 100.356 4.72246C100.763 4.47819 101.048 4.1932 101.252 3.78607C101.455 3.41966 101.577 3.01254 101.577 2.5647C101.659 2.03544 101.537 1.62831 101.292 1.2619ZM101.007 3.58251C100.804 3.90821 100.559 4.15249 100.234 4.35605C99.9081 4.55961 99.5417 4.64104 99.1752 4.64104C98.8088 4.64104 98.4424 4.55961 98.1167 4.35605C97.791 4.15249 97.506 3.90821 97.3432 3.58251C97.1396 3.25681 97.0582 2.8904 97.0582 2.52399C97.0582 2.11686 97.1396 1.79116 97.3432 1.46546C97.5467 1.13976 97.791 0.895489 98.1167 0.691927C98.4424 0.488364 98.8088 0.40694 99.1752 0.40694C99.5824 0.40694 99.9081 0.488364 100.234 0.691927C100.559 0.895489 100.804 1.13976 101.007 1.46546C101.211 1.79116 101.292 2.15758 101.292 2.52399C101.292 2.8904 101.211 3.25681 101.007 3.58251Z" fill="#4DCEFD"/>
<path d="M15.0229 29.9642C13.5165 31.1856 11.4809 31.7963 8.91603 31.7963C6.31043 31.7963 4.19338 31.1449 2.6056 29.8421C0.854962 28.4578 0 26.5036 0 23.9795V23.1652H6.26972C6.26972 24.0609 6.47328 24.8344 6.88041 25.4451C7.32824 26.1779 7.97964 26.5036 8.83461 26.5036C10.4224 26.5036 11.2366 25.7301 11.2366 24.1423C11.2366 23.4095 10.9517 22.8395 10.4224 22.3917C10.2188 22.2288 9.93384 22.0253 9.56743 21.8624L9.07888 21.6181L6.39186 20.4782C5.49618 20.1118 4.72265 19.7454 4.11196 19.3382C3.33842 18.8904 2.72774 18.4019 2.19847 17.8726C0.977099 16.6512 0.407125 15.1449 0.407125 13.3942C0.407125 11.2365 1.3028 9.44511 3.13486 8.06089C4.80407 6.7988 6.75827 6.1474 9.03817 6.1474C10.3003 6.1474 11.5216 6.39167 12.6616 6.83951C13.9237 7.32806 14.9415 8.06089 15.6743 8.95656C16.6921 10.2186 17.2214 11.8471 17.3028 13.8013H11.0738C10.8295 12.2136 10.0967 11.3993 8.79389 11.3993C7.36896 11.3993 6.63613 12.0507 6.63613 13.3128C6.63613 13.7606 6.71756 14.127 6.88041 14.3713C7.12468 14.7784 7.89822 15.3077 9.16031 15.9184L11.7659 17.0991C12.6616 17.5062 13.4351 17.9133 14.0458 18.2797C14.7786 18.7276 15.3893 19.2161 15.8779 19.7454C16.9771 20.926 17.5471 22.3917 17.5471 24.183C17.4656 26.7072 16.6514 28.6207 15.0229 29.9642Z" fill="#4DCEFD"/>
<path d="M34.1577 30.1677C32.6513 31.389 30.6157 31.9997 28.0508 31.9997C25.4452 31.9997 23.3282 31.3483 21.7404 30.0455C20.0304 28.6613 19.1348 26.7071 19.1348 24.1829V23.3687H25.4045C25.4045 24.2643 25.608 25.0379 26.0152 25.6486C26.463 26.3814 27.1144 26.7071 27.9694 26.7071C29.5572 26.7071 30.3714 25.9336 30.3714 24.3458C30.3714 23.6129 30.0864 23.043 29.5572 22.5951C29.3536 22.4323 29.0686 22.2287 28.7022 22.0659L28.2136 21.8216L25.5266 20.7631C24.6309 20.3967 23.8574 20.0302 23.2467 19.6231C22.4732 19.1753 21.8625 18.6867 21.3332 18.1575C20.1119 16.9361 19.5419 15.4297 19.5419 13.6791C19.5419 11.5213 20.4376 9.72999 22.2696 8.34577C23.9388 7.08368 25.893 6.43228 28.1729 6.43228C29.435 6.43228 30.6564 6.67656 31.7963 7.12439C33.0584 7.61294 34.0762 8.34577 34.8091 9.24144C35.8269 10.5035 36.3561 12.132 36.4376 14.0862H30.2086C29.9643 12.4984 29.2315 11.6842 27.9287 11.6842C26.5037 11.6842 25.7709 12.3356 25.7709 13.5977C25.7709 14.0455 25.8523 14.4119 26.0152 14.6562C26.2594 15.0633 27.033 15.5926 28.2951 16.2033L30.9007 17.3839C31.7963 17.7911 32.5699 18.1982 33.1806 18.5646C33.9134 19.0124 34.5241 19.501 35.0126 20.0302C36.1119 21.2109 36.6818 22.6766 36.6818 24.4679C36.6411 26.9107 35.7862 28.8241 34.1577 30.1677Z" fill="#4DCEFD"/>
<path d="M86.5543 18.5648C86.0657 19.8676 85.3736 20.8854 84.5186 21.6183C83.5008 22.5139 82.3202 23.1246 81.0174 23.4503C79.9996 23.6946 78.6968 23.8574 77.0275 23.8574H74.1777V31.8778H67.908V6.26965H76.2947C77.109 6.26965 77.8011 6.26965 78.3303 6.31037C79.1039 6.35108 79.796 6.4325 80.4067 6.55464C81.9538 6.83963 83.2158 7.36889 84.1522 8.14243C86.1471 9.85235 87.165 12.0915 87.165 14.9007C87.2057 16.1628 87.0021 17.3842 86.5543 18.5648ZM79.5924 12.5394C78.941 12.2137 77.9639 12.0508 76.6204 12.0508H74.2184V18.1577H76.8647C78.1268 18.1577 79.0632 17.9541 79.7146 17.5877C80.5288 17.0992 80.9359 16.2849 80.9359 15.1043C80.9359 13.8422 80.4881 12.9872 79.5924 12.5394Z" fill="#4DCEFD"/>
<path d="M89.0784 31.7555V6.18805H95.6331V31.7555H89.0784Z" fill="#4DCEFD"/>
<path d="M46.6161 22.5137L40.1428 16.7326L40.1835 9.44504L46.6975 14.7377L46.6161 22.5137Z" fill="#4DCEFD"/>
<path d="M46.6568 31.7962H40.1835L40.1428 16.7326L46.6161 22.5138L46.6568 31.7962Z" fill="#4DCEFD"/>
<path d="M64.2445 31.7963L56.0613 31.837L46.616 22.5139L51.135 18.524L64.2445 31.7963Z" fill="#4DCEFD"/>
<path d="M69.3744 2.52393H61.0283L42.1785 18.5239L46.6161 22.5137L69.3744 2.52393Z" fill="#4DCEFD"/>
</svg>
