<svg width="102" height="32" viewBox="0 0 102 32" fill="none" xmlns="http://www.w3.org/2000/svg">
<path d="M99.623 2.64608C99.7858 2.56465 99.908 2.48323 100.03 2.36109C100.112 2.23895 100.152 2.0761 100.152 1.87254C100.152 1.58755 100.071 1.34328 99.908 1.22114C99.7451 1.099 99.4601 1.01758 99.0937 1.01758H98.2388V3.98959H98.7273V2.80893H99.1752L99.8673 3.98959H100.437L99.623 2.64608ZM99.0937 2.4018H98.7273V1.4247H99.0937C99.2973 1.4247 99.4601 1.46542 99.5416 1.54684C99.623 1.62827 99.7044 1.7504 99.7044 1.91325C99.7044 2.03539 99.6637 2.15753 99.5416 2.27966C99.3787 2.36109 99.2566 2.4018 99.0937 2.4018Z" fill="#303082"/>
<path d="M101.292 1.2619C101.089 0.854777 100.763 0.569789 100.356 0.366227C99.9488 0.162665 99.5417 0.0405273 99.0938 0.0405273C98.646 0.0405273 98.2389 0.162665 97.8317 0.366227C97.4246 0.569789 97.1396 0.895489 96.9361 1.30261C96.7325 1.70974 96.6104 2.11686 96.6104 2.5647C96.6104 3.01254 96.7325 3.41966 96.9361 3.78607C97.1396 4.15249 97.4653 4.47819 97.8317 4.72246C98.2389 4.96674 98.646 5.04816 99.0938 5.04816C99.5417 5.04816 99.9895 4.92602 100.356 4.72246C100.763 4.47819 101.048 4.1932 101.252 3.78607C101.455 3.41966 101.577 3.01254 101.577 2.5647C101.659 2.03544 101.537 1.62831 101.292 1.2619ZM101.007 3.58251C100.804 3.90821 100.559 4.15249 100.234 4.35605C99.9081 4.55961 99.5417 4.64104 99.1752 4.64104C98.8088 4.64104 98.4424 4.55961 98.1167 4.35605C97.791 4.15249 97.506 3.90821 97.3432 3.58251C97.1396 3.25681 97.0582 2.8904 97.0582 2.52399C97.0582 2.11686 97.1396 1.79116 97.3432 1.46546C97.5467 1.13976 97.791 0.895489 98.1167 0.691927C98.4424 0.488364 98.8088 0.40694 99.1752 0.40694C99.5824 0.40694 99.9081 0.488364 100.234 0.691927C100.559 0.895489 100.804 1.13976 101.007 1.46546C101.211 1.79116 101.292 2.15758 101.292 2.52399C101.292 2.8904 101.211 3.25681 101.007 3.58251Z" fill="#303082"/>
<path d="M15.0229 29.9643C13.5165 31.1856 11.4809 31.7963 8.91603 31.7963C6.31043 31.7963 4.19338 31.1449 2.6056 29.8421C0.854962 28.4579 0 26.5037 0 23.9795V23.1653H6.26972C6.26972 24.0609 6.47328 24.8345 6.88041 25.4452C7.32824 26.178 7.97964 26.5037 8.83461 26.5037C10.4224 26.5037 11.2366 25.7302 11.2366 24.1424C11.2366 23.4095 10.9517 22.8396 10.4224 22.3917C10.2188 22.2289 9.93384 22.0253 9.56743 21.8625L9.07888 21.6182L6.39186 20.4783C5.49618 20.1118 4.72265 19.7454 4.11196 19.3383C3.33842 18.8905 2.72774 18.4019 2.19847 17.8727C0.977099 16.6513 0.407125 15.1449 0.407125 13.3943C0.407125 11.2365 1.3028 9.44517 3.13486 8.06095C4.80407 6.79886 6.75827 6.14746 9.03817 6.14746C10.3003 6.14746 11.5216 6.39174 12.6616 6.83957C13.9237 7.32812 14.9415 8.06095 15.6743 8.95662C16.6921 10.2187 17.2214 11.8472 17.3028 13.8014H11.0738C10.8295 12.2136 10.0967 11.3994 8.79389 11.3994C7.36896 11.3994 6.63613 12.0508 6.63613 13.3129C6.63613 13.7607 6.71756 14.1271 6.88041 14.3714C7.12468 14.7785 7.89822 15.3078 9.16031 15.9185L11.7659 17.0991C12.6616 17.5062 13.4351 17.9134 14.0458 18.2798C14.7786 18.7276 15.3893 19.2162 15.8779 19.7454C16.9771 20.9261 17.5471 22.3917 17.5471 24.1831C17.4656 26.7073 16.6514 28.6207 15.0229 29.9643Z" fill="url(#paint0_linear)"/>
<path d="M34.1577 30.1675C32.6513 31.3889 30.6157 31.9996 28.0508 31.9996C25.4452 31.9996 23.3282 31.3482 21.7404 30.0454C20.0304 28.6611 19.1348 26.7069 19.1348 24.1828V23.3685H25.4045C25.4045 24.2642 25.608 25.0377 26.0152 25.6484C26.463 26.3812 27.1144 26.7069 27.9694 26.7069C29.5572 26.7069 30.3714 25.9334 30.3714 24.3456C30.3714 23.6128 30.0864 23.0428 29.5572 22.595C29.3536 22.4321 29.0686 22.2286 28.7022 22.0657L28.2136 21.8214L25.5266 20.7629C24.6309 20.3965 23.8574 20.0301 23.2467 19.623C22.4732 19.1751 21.8625 18.6866 21.3332 18.1573C20.1119 16.9359 19.5419 15.4296 19.5419 13.6789C19.5419 11.5212 20.4376 9.72984 22.2696 8.34562C23.9388 7.08353 25.893 6.43213 28.1729 6.43213C29.435 6.43213 30.6564 6.6764 31.7963 7.12424C33.0584 7.61279 34.0762 8.34562 34.8091 9.24129C35.8269 10.5034 36.3561 12.1319 36.4376 14.0861H30.2086C29.9643 12.4983 29.2315 11.684 27.9287 11.684C26.5037 11.684 25.7709 12.3354 25.7709 13.5975C25.7709 14.0454 25.8523 14.4118 26.0152 14.656C26.2594 15.0632 27.033 15.5924 28.2951 16.2031L30.9007 17.3838C31.7963 17.7909 32.5699 18.198 33.1806 18.5644C33.9134 19.0123 34.5241 19.5008 35.0126 20.0301C36.1119 21.2108 36.6818 22.6764 36.6818 24.4678C36.6411 26.9105 35.7862 28.824 34.1577 30.1675Z" fill="url(#paint1_linear)"/>
<path d="M86.5543 18.5647C86.0657 19.8675 85.3736 20.8853 84.5186 21.6181C83.5008 22.5138 82.3202 23.1245 81.0174 23.4502C79.9996 23.6945 78.6968 23.8573 77.0275 23.8573H74.1777V31.8777H67.908V6.26953H76.2947C77.109 6.26953 77.8011 6.26953 78.3303 6.31024C79.1039 6.35096 79.796 6.43238 80.4067 6.55452C81.9538 6.83951 83.2158 7.36877 84.1522 8.14231C86.1471 9.85223 87.165 12.0914 87.165 14.9006C87.2057 16.1627 87.0021 17.384 86.5543 18.5647ZM79.5924 12.5393C78.941 12.2136 77.9639 12.0507 76.6204 12.0507H74.2184V18.1576H76.8647C78.1268 18.1576 79.0632 17.954 79.7146 17.5876C80.5288 17.099 80.9359 16.2848 80.9359 15.1041C80.9359 13.8421 80.4881 12.9871 79.5924 12.5393Z" fill="url(#paint2_linear)"/>
<path d="M89.0784 31.7554V6.18799H95.6331V31.7554H89.0784Z" fill="url(#paint3_linear)"/>
<path d="M46.6161 22.5135L40.1428 16.7324L40.1835 9.44482L46.6975 14.7374L46.6161 22.5135Z" fill="url(#paint4_linear)"/>
<path d="M46.6568 31.796H40.1835L40.1428 16.7324L46.6161 22.5136L46.6568 31.796Z" fill="url(#paint5_linear)"/>
<path d="M64.2445 31.7962L56.0613 31.8369L46.616 22.5137L51.135 18.5239L64.2445 31.7962Z" fill="url(#paint6_linear)"/>
<path d="M69.3744 2.52393H61.0283L42.1785 18.5239L46.6161 22.5137L69.3744 2.52393Z" fill="url(#paint7_linear)"/>
<defs>
<linearGradient id="paint0_linear" x1="0" y1="19.0236" x2="17.481" y2="19.0236" gradientUnits="userSpaceOnUse">
<stop offset="0.3069" stop-color="#303082"/>
<stop offset="0.9896" stop-color="#303082"/>
</linearGradient>
<linearGradient id="paint1_linear" x1="19.147" y1="19.2306" x2="36.628" y2="19.2306" gradientUnits="userSpaceOnUse">
<stop offset="0.3069" stop-color="#303082"/>
<stop offset="0.9896" stop-color="#303082"/>
</linearGradient>
<linearGradient id="paint2_linear" x1="67.9385" y1="19.0672" x2="87.2165" y2="19.0672" gradientUnits="userSpaceOnUse">
<stop offset="0.3069" stop-color="#303082"/>
<stop offset="0.9896" stop-color="#303082"/>
</linearGradient>
<linearGradient id="paint3_linear" x1="89.0673" y1="18.9704" x2="95.6059" y2="18.9704" gradientUnits="userSpaceOnUse">
<stop offset="0.3069" stop-color="#303082"/>
<stop offset="0.9896" stop-color="#303082"/>
</linearGradient>
<linearGradient id="paint4_linear" x1="43.4961" y1="21.4563" x2="43.3436" y2="8.03133" gradientUnits="userSpaceOnUse">
<stop stop-color="#5FECFD"/>
<stop offset="1" stop-color="#0154FF"/>
</linearGradient>
<linearGradient id="paint5_linear" x1="40.1534" y1="24.2694" x2="46.6543" y2="24.2694" gradientUnits="userSpaceOnUse">
<stop offset="0.3069" stop-color="#303082"/>
<stop offset="0.9896" stop-color="#303082"/>
</linearGradient>
<linearGradient id="paint6_linear" x1="53.1341" y1="29.34" x2="57.6919" y2="24.9783" gradientUnits="userSpaceOnUse">
<stop offset="0.3069" stop-color="#303082"/>
<stop offset="0.9896" stop-color="#303082"/>
</linearGradient>
<linearGradient id="paint7_linear" x1="63.3687" y1="4.25783" x2="44.7561" y2="20.1971" gradientUnits="userSpaceOnUse">
<stop stop-color="#5FECFD"/>
<stop offset="1" stop-color="#0154FF"/>
</linearGradient>
</defs>
</svg>
